<?xml version="1.0" encoding="UTF-8"?>
<svg id="Layer_1" data-name="Layer 1" xmlns="http://www.w3.org/2000/svg" viewBox="0 0 21.64 21.52">
  <g id="add">
    <path d="M11.13.24c9.14-.68,13.27,8.69,8.25,15.85-3.88,5.54-12.75,7.72-17.38,1.88C-3.45,11.09,3.1.84,11.13.24ZM11.78,1.27C4.95,1.4-1.12,9.09,1.8,15.67c2.38,5.37,9.08,5.86,13.59,2.88C22.88,13.62,22.4,1.98,12.42,1.25l-.64.02Z"/>
    <path d="M9.89,11.13c-.01-1.29.01-2.59,0-3.88,0-.67-.12-1.38-.06-2.06.09-.96.97-1.01,1.08-.27.08.5.05,1.54.06,2.11.03,1.16-.09,2.45,0,3.59,0,.09.05.45.11.49l6.76-.08c.34.1.67-.04.9.3.34.5-.23.8-.68.84-1.87.17-4.01-.08-5.92,0-.32.01-.67.08-1.01.08-.08.06-.06,1.07-.05,1.25.04,1.61.15,3.73,0,5.32-.03.34-.15.79-.57.79s-.54-.45-.57-.79c-.1-1.12.06-2.4.11-3.52l-.11-3.05c-.07-.05-.95-.03-1.12-.03-.96.03-2.03.05-2.98.11-.77.05-2.36.6-2.95.02-.21-.2-.31-.49-.06-.7.27-.23.92-.1,1.28-.13.48-.04,1.02-.26,1.52-.27l4.26-.11Z"/>
  </g>
</svg>