<?xml version="1.0" encoding="UTF-8"?>
<svg id="Layer_1" data-name="Layer 1" xmlns="http://www.w3.org/2000/svg" viewBox="0 0 24 24">
  <defs>
    <style>
      .cls-1 {
        stroke-width: .98px;
      }

      .cls-1, .cls-2 {
        stroke: #000;
        stroke-miterlimit: 10;
      }

      .cls-2 {
        stroke-width: 1.47px;
      }
    </style>
  </defs>
  <path class="cls-1" d="M12.33.46c9.56-.71,13.87,9.09,8.63,16.57-4.06,5.79-13.33,8.07-18.17,1.96C-2.91,11.81,3.94,1.09,12.33.46ZM13.01,1.54C5.87,1.68-.48,9.71,2.57,16.6c2.49,5.62,9.49,6.13,14.21,3.02,7.83-5.16,7.33-17.33-3.11-18.09l-.67.02Z"/>
  <path class="cls-2" d="M11.33,11.34c-.01-1.27.01-2.54,0-3.81,0-.66-.11-1.35-.05-2.02.08-.94.95-.99,1.06-.26.08.49.05,1.51.06,2.07.02,1.14-.09,2.41,0,3.52,0,.09.05.44.1.48l6.63-.08c.33.09.66-.04.88.29.33.5-.22.79-.67.83-1.83.16-3.93-.08-5.81,0-.31.01-.66.08-.99.08-.08.06-.06,1.05-.05,1.23.04,1.58.15,3.66,0,5.22-.03.34-.14.78-.56.78s-.53-.44-.56-.78c-.1-1.1.06-2.35.11-3.46l-.11-2.99c-.07-.05-.93-.03-1.1-.03-.94.02-1.99.05-2.93.11-.76.05-2.31.59-2.9.02-.2-.2-.3-.48-.06-.69.27-.23.9-.1,1.25-.13.47-.04,1-.25,1.49-.26l4.18-.11Z"/>
</svg>