<?xml version="1.0" encoding="UTF-8"?>
<svg id="Layer_1" data-name="Layer 1" xmlns="http://www.w3.org/2000/svg" viewBox="0 0 24 24">
  <defs>
    <style>
      .cls-1 {
        stroke: #000;
        stroke-miterlimit: 10;
        stroke-width: .76px;
      }
    </style>
  </defs>
  <path class="cls-1" d="M7.48,11.87c.61-.02,1.22.03,1.83,0,3.48-.18,7.3-1.06,10.69-1.14.99-.03,2.87-.04,2.93,1.09.08,1.57-2.05,1.11-3.19,1.2-2.17.18-4.33.58-6.5.79-2.45.24-4.91.4-7.38.51-.22.14-.06.17.07.29,1.18.99,3.81,1.62,5.17,2.37,1.27.71,1.2,2.04-.43,2.09s-6.87-2.76-8.32-3.73c-.83-.55-1.61-1.13-1.34-2.13.15-.55,3.03-2.06,3.75-2.54,2.31-1.54,4.15-3.43,6.31-4.95.79-.56,1.72-1.14,2.71-.46,1.42.98-.46,1.76-1.09,2.28-.82.67-1.57,1.48-2.43,2.17-.9.73-2.03,1.3-2.78,2.16Z"/>
</svg>