<?xml version="1.0" encoding="UTF-8"?>
<svg id="Layer_1" data-name="Layer 1" xmlns="http://www.w3.org/2000/svg" viewBox="0 0 24 24">
  <path d="M17.8,9.26c0,.12.23.14.31.14,1.59-.04,2.93-.53,4.46.3.44.24.67.55.51,1.07l-.68.61c.92.35,1.01,1.07.12,1.56-.17.09-.52.06-.48.27,1.06.14,1.4.93.36,1.48,0,.09.72.26.63.77-.07.44-.53.49-.78.77.42.08,1.3.39.9.93-.15.2-.47.18-.47.43,1.01.21.71.97-.14,1.15-.13.14.43.24.53.3.36.21.47.52.12.81-.98.81-6.35,1.12-7.8,1.19-2.58.12-5.2.1-7.77,0-1.29-.05-4.14-.07-5.19-.71-.97-.58.41-1.05.41-1.13-.22-.18-.73-.23-.79-.58-.08-.48.34-.47.58-.75-.9-.23-.85-.91,0-1.19-.38-.32-.95-.28-.86-.93.06-.43.45-.37.64-.69-1.02-.27-.76-1.07.07-1.4-.19-.25-.58-.3-.78-.51-.45-.46-.1-.94.35-1.22-2.14-1.04-.05-2.1,1.3-2.19-.7-.61-1.29-1.21-.96-2.21.74-2.23,5.98-3.59,8.06-3.95,2.57-.45,9.23-1.01,11.02,1.24,1.63,2.05-2.11,3.98-3.67,4.42ZM13.47,4.1c-2.59.15-7.67,1.15-9.62,2.89-1.72,1.53.27,2.28,1.65,2.59,3.7.83,9.39.08,12.85-1.46,1.77-.79,4.34-2.53,1-3.54-1.76-.53-4.04-.59-5.88-.48ZM22.18,10.41c-.65-.19-1.52-.49-2.19-.49-.34,0-.75.16-1.09.19-4.56.47-8.74,1.06-13.37.65-1.18-.1-2.32-.57-3.42.25,0,.16.96.34,1.13.37,4.59.87,13,.65,17.56-.45.44-.11,1.05-.22,1.37-.54ZM2.48,12.78c.23.24,3.98.61,4.57.65,4.04.25,9.62.12,13.57-.74.23-.05,1.56-.37,1.56-.52-1.04-.62-2.19-.12-3.28.03-4.38.58-9.24.72-13.65.37-.86-.07-1.89-.47-2.68.06-.07.04-.13,0-.09.16ZM2.69,14.51c1.72.45,3.52.5,5.29.57,4.05.17,8.95.11,12.92-.74.38-.08.84-.13,1.14-.37,0-.1-.73-.27-.86-.29-1.83-.35-4.75.68-6.72.54l-6.55.07c-1.54.02-3.27-.54-4.74-.08-.07.02-.6.14-.47.29ZM2.69,15.94c1.72.45,3.52.5,5.29.57,4.05.17,8.95.11,12.92-.74.18-.04,1.13-.22,1.14-.37-.07-.1-.18-.11-.29-.14-.97-.33-3.02.21-4.14.32-3.85.38-8.16.43-12.01.14-.95-.07-1.9-.45-2.82.06-.08.05-.12,0-.09.16ZM2.98,17.38c.08.08,1.45.26,1.69.29,2.22.25,4.46.23,6.68.21,3.06-.02,7.66.02,10.55-.81.12-.04.26-.04.34-.16-1.42-.64-3.13-.04-4.64.11-3.92.38-8.09.39-12.01.14-.79-.05-1.77-.36-2.53.06-.06.04-.19.06-.09.16ZM3.05,18.61c.08.08,1.45.26,1.69.29,2.22.25,4.46.23,6.68.21,3.06-.02,7.66.02,10.55-.81.12-.04.26-.04.34-.16-.08-.12-.22-.12-.34-.16-.91-.26-3.22.25-4.29.34-3.66.3-7.76.34-11.43.14-.86-.05-2.36-.43-3.11-.02-.06.04-.19.05-.09.16ZM3.13,19.97c.08.08,1.45.26,1.69.29,2.22.25,4.46.23,6.68.21,3.06-.02,7.66.02,10.55-.81.12-.04.26-.04.34-.16,0-.16-1.27-.33-1.47-.33-2.24,0-4.88.69-7.19.58h-5.76c-1.33-.04-3.32-.44-4.55-.02-.06.02-.44.1-.3.23Z"/>
  <path d="M11.74,6.25c.8-.14,1.46.25.88,1.03-.32.43-2.13,1.06-2.34.4-.25-.75.87-1.32,1.46-1.43Z"/>
</svg>