<?xml version="1.0" encoding="UTF-8"?>
<svg id="Layer_1" data-name="Layer 1" xmlns="http://www.w3.org/2000/svg" viewBox="0 0 56.1 42.31">
  <g id="close">
    <path d="M32.71,10.02c10.43-.88,16.24,15.48,7.98,21.51-6.04,4.4-13.18-.89-15.18-6.95s.2-13.97,7.2-14.56ZM37.72,30.2c-.42-.39-1.23-2.39-1.63-3.06-.62-1.04-1.38-2.01-2-3.04-.11-.03-.13.09-.16.16-.34.64-.62,1.75-.9,2.48-.31.78-.66,1.76-1.02,2.49-.19.4-.39.71-.76.97,4.11,2.93,9.17,1.6,11.17-3.05,2.08-4.83.03-11.5-4.39-14.32-6.64-4.23-12.3,1.16-11.89,8.19.16,2.82,1.87,6.74,4.15,8.48.09.07.19.17.32.16.22-1.39.95-2.69,1.45-4,.37-.96.71-1.94,1.04-2.92-.93-1.51-2.03-2.95-2.88-4.52-.22-.41-.76-1.41-.62-1.85.09-.19.34-.11.46.03,1.19,1.67,2.21,3.49,3.55,5.03.48-1.49,1.05-2.94,1.53-4.43.17-.54.36-1.6.59-2.03.29-.53.96-.4,1.01.18s-.44,2.13-.62,2.76c-.48,1.61-1.12,3.17-1.61,4.77.99,1.66,2.28,3.18,3.22,4.88.21.39.87,1.56.96,1.91.2.77-.34,1.33-.97.75Z"/>
  </g>
</svg>