<?xml version="1.0" encoding="UTF-8"?>
<svg id="Layer_1" data-name="Layer 1" xmlns="http://www.w3.org/2000/svg" viewBox="0 0 24 24">
  <defs>
    <style>
      .cls-1 {
        stroke: #000;
        stroke-miterlimit: 10;
        stroke-width: .97px;
      }
    </style>
  </defs>
  <g id="comment">
    <path class="cls-1" d="M18.75,5.01c5.92,4.11,5.42,13.04-2.06,14.86-3.8.93-8.06-.86-10.38-3.89-.1-.13.08-.3-.3-.26-1.54.16-3.21.73-4.77.92-.45.05-1.12.03-.87-.61.06-.15.43-.62.55-.76.43-.49,1.04-.97,1.5-1.45.71-.73,1.37-1.5,2.12-2.19.1-.5.01-1.02.06-1.53.68-6.99,8.92-8.72,14.15-5.09ZM17.93,5.64c-3.84-2.52-9.86-2.06-11.82,2.54-.56,1.31-.64,2.48-.48,3.88-.19.18-.38.35-.58.52-.45.4-.83.79-1.23,1.2-.37.38-1.13,1.03-1.42,1.42-.05.07-.1.1-.09.2l4.42-.78c.07.18.21.31.31.48,1.11,1.82,3.1,3.14,5.19,3.7,4.7,1.26,9.81-1.53,9.58-6.78-.1-2.3-1.45-4.49-3.22-5.91-.2-.16-.47-.36-.67-.49Z"/>
    <path class="cls-1" d="M17.46,11.1c.47.04.43,1.08-.12,1.3-.83.33-1.15-.75-.49-1.12.09-.05.52-.18.6-.18Z"/>
    <path class="cls-1" d="M14.66,12.34c-.27.19-.7.09-.88-.19-.39-.61.62-1.29,1-1.04.24.16.15,1.03-.12,1.22Z"/>
    <path class="cls-1" d="M11.56,12.12c-.42.58-1.41.02-.86-.66s1.27.11.86.66Z"/>
  </g>
</svg>