<?xml version="1.0" encoding="UTF-8"?>
<svg id="Layer_1" data-name="Layer 1" xmlns="http://www.w3.org/2000/svg" viewBox="0 0 21.81 21.52">
  <g id="comment">
    <path d="M16.68,3.44c6.21,3.21,6.85,11.87-.12,14.56-3.54,1.37-7.87.18-10.48-2.44-.11-.11.04-.3-.32-.21-1.47.35-3,1.11-4.47,1.48-.43.11-1.07.17-.91-.48.04-.15.34-.66.44-.8.35-.52.88-1.07,1.26-1.59.59-.79,1.13-1.62,1.77-2.37.04-.49-.12-.98-.13-1.48-.23-6.81,7.49-9.52,12.98-6.68ZM15.97,4.15c-4.01-1.94-9.75-.75-11.06,3.93-.37,1.33-.3,2.47.02,3.8-.16.2-.33.39-.49.58-.39.45-.7.86-1.04,1.31-.31.41-.96,1.13-1.18,1.55-.04.07-.08.11-.06.21l4.16-1.3c.09.17.25.28.36.42,1.3,1.61,3.38,2.63,5.46,2.91,4.69.63,9.25-2.71,8.37-7.73-.38-2.21-1.96-4.14-3.84-5.28-.21-.13-.49-.29-.7-.39Z"/>
    <path d="M16.2,9.46c.46-.02.55.99.05,1.27-.76.42-1.21-.58-.61-1.02.08-.06.48-.24.56-.24Z"/>
    <path d="M13.67,11.01c-.23.22-.66.17-.87-.07-.45-.54.44-1.32.83-1.12.25.13.27.98.04,1.19Z"/>
    <path d="M10.66,11.19c-.34.61-1.35.2-.92-.53s1.24-.05.92.53Z"/>
  </g>
</svg>