<?xml version="1.0" encoding="UTF-8"?>
<svg id="Layer_1" data-name="Layer 1" xmlns="http://www.w3.org/2000/svg" viewBox="0 0 22.38 22.2">
  <g id="confirm">
    <path d="M10.86,1.84c7.89-.59,11.45,7.5,7.12,13.67-3.35,4.78-11,6.66-14.99,1.62C-1.71,11.21,3.94,2.36,10.86,1.84ZM11.42,2.73C5.53,2.85.29,9.48,2.81,15.16c2.06,4.64,7.83,5.06,11.73,2.49,6.46-4.26,6.05-14.3-2.56-14.93l-.55.02Z"/>
    <path d="M5.57,9.4c.07.06.16.25.19.35l1.81,6.59L21.64,1.61c.72-.39.99.4.45.87l-14.51,15.23c-.26.16-.59.03-.71-.24l-2.02-7.37c-.27-.49.29-1.11.72-.69Z"/>
  </g>
</svg>