<?xml version="1.0" encoding="UTF-8"?>
<svg id="Layer_1" data-name="Layer 1" xmlns="http://www.w3.org/2000/svg" viewBox="0 0 24 24">
  <defs>
    <style>
      .cls-1 {
        stroke: #000;
        stroke-miterlimit: 10;
        stroke-width: .75px;
      }
    </style>
  </defs>
  <g id="confirm">
    <path class="cls-1" d="M11.04,3.03c7.89-.59,11.45,7.5,7.12,13.67-3.35,4.78-11,6.66-14.99,1.62C-1.53,12.39,4.12,3.55,11.04,3.03ZM11.61,3.92c-5.89.12-11.13,6.75-8.61,12.43,2.06,4.64,7.83,5.06,11.73,2.49,6.46-4.26,6.05-14.3-2.56-14.93l-.55.02Z"/>
    <path class="cls-1" d="M5.76,10.59c.07.06.16.25.19.35l1.81,6.59L21.82,2.8c.72-.39.99.4.45.87l-14.51,15.23c-.26.16-.59.03-.71-.24l-2.02-7.37c-.27-.49.29-1.11.72-.69Z"/>
  </g>
</svg>