<?xml version="1.0" encoding="UTF-8"?>
<svg id="Layer_1" data-name="Layer 1" xmlns="http://www.w3.org/2000/svg" viewBox="0 0 24 24">
  <path d="M5.17,8.54c1.04-.18,2.91.4,3.14,1.57.14.71-.25,2.24-.47,2.98-.49,1.66-.95,2.29-2.78,2.39-2.46.14-2.63-1.47-2.32-3.51.18-1.22,1.05-3.2,2.43-3.43Z"/>
  <path d="M12.37,15.46c-1.05.15-2.9-.48-3.1-1.65-.13-.72.31-2.23.55-2.96.53-1.64,1.02-2.26,2.85-2.32,2.46-.07,2.59,1.54,2.22,3.57-.22,1.21-1.14,3.17-2.52,3.36Z"/>
  <path d="M17.97,8.56c1.01-.3,2.93.06,3.31,1.19.23.69.02,2.25-.12,3.01-.29,1.7-.68,2.39-2.48,2.7-2.43.43-2.78-1.16-2.71-3.21.04-1.23.67-3.3,2.01-3.69Z"/>
</svg>