<?xml version="1.0" encoding="UTF-8"?>
<svg id="Layer_1" data-name="Layer 1" xmlns="http://www.w3.org/2000/svg" viewBox="0 0 24 24">
  <path d="M4.85,9.21c.89-.16,2.49.37,2.7,1.42.12.65-.21,2.02-.4,2.69-.42,1.5-.82,2.07-2.39,2.17-2.11.13-2.25-1.33-1.99-3.18.16-1.1.9-2.89,2.08-3.11Z"/>
  <path d="M12.19,15.5c-.9.14-2.48-.43-2.65-1.51-.11-.65.27-2.04.47-2.71.46-1.5.87-2.07,2.44-2.12,2.11-.07,2.21,1.41,1.9,3.26-.19,1.11-.98,2.9-2.16,3.08Z"/>
  <path d="M18,9.23c.81-.26,2.36.09,2.67,1.11.19.63.04,2.03-.06,2.72-.21,1.53-.52,2.15-1.96,2.41-1.95.36-2.25-1.08-2.22-2.93.02-1.11.5-2.97,1.57-3.31Z"/>
</svg>