<?xml version="1.0" encoding="UTF-8"?>
<svg id="Layer_1" data-name="Layer 1" xmlns="http://www.w3.org/2000/svg" viewBox="0 0 22.38 22.2">
  <g id="cds">
    <path d="M11.22,4.21s.02.07.06.08c.38.12.77.2,1.12.39.17-.57.46-.65,1.02-.49.78.23,1.64.48,2.42.86.14.07.52.36.63.33.06-.01.13-.12.22-.16.28-.12,1.33.24,1.65.37.13.05.49.25.65.33,2.98,1.6,3.71,4.57,2.02,7.48-.13.22-.59.92-.8.99-.3.09-.41-.04-.65-.14-.09.26-.24.49-.41.7-.4.5-1.37,1.19-1.98,1.39-.53.18-1.91.49-2.35.13-.13-.11-.12-.36-.22-.32-.4.37-.88.71-1.34,1-3.61,2.32-9.28,1.44-11.5-2.4C-1.86,8.53,4.93,2.3,11.22,4.21ZM12.25,5.63c-2.22-1.15-5.17-.91-7.29.3C1.84,7.7.64,11.6,2.81,14.62c3.22,4.49,10.91,3.6,12.72-1.75,1.01-2.97-.59-5.84-3.28-7.24ZM14.86,5.62c-.39-.19-.9-.34-1.34-.37.42.38.91.68,1.3,1.09,2.16,2.21,2.54,5.56,1.02,8.26l-.86,1.1c1.15,0,2.35-.26,3.18-1.11.59-.6.98-1.35,1.06-2.2.26-2.99-1.82-5.52-4.36-6.75ZM19.15,7.09c-.26-.2-1-.58-1.31-.67-.07-.02-.11.01-.08.08.04.09.44.42.54.54,1.43,1.66,2.1,3.65,1.82,5.85,0,.06-.08.18.03.16.85-1.42,1.16-3.3.21-4.75-.21-.33-.89-.98-1.2-1.22Z"/>
    <path d="M10.73,11.71c0,1.12-.91,2.03-2.02,2.03s-2.02-.91-2.02-2.03.91-2.03,2.02-2.03,2.02.91,2.02,2.03ZM9.76,11.72c0-.58-.47-1.05-1.05-1.05s-1.05.47-1.05,1.05.47,1.05,1.05,1.05,1.05-.47,1.05-1.05Z"/>
  </g>
</svg>