<?xml version="1.0" encoding="UTF-8"?>
<svg id="Layer_1" data-name="Layer 1" xmlns="http://www.w3.org/2000/svg" viewBox="0 0 21.81 21.52">
  <g id="edit">
    <path d="M1.8,5.6l.38,14.12,13.92-.42.13-.21c.11-1.52-.2-3.2-.05-4.7.07-.68.75-.69.82-.1-.12,1.69.16,3.62,0,5.28-.07.68-.7.48-1.19.5-3.45.19-6.91.24-10.37.34-1.14.03-2.3.13-3.44.15-.85.01-.62-.72-.65-1.29-.22-4.34-.27-8.77-.34-13.13-.01-.7-.33-1.3.65-1.38,1.28-.1,2.68-.05,3.98-.09,2.03-.07,4.08-.22,6.1-.25.73-.01.81.75.1.83l-10.05.34Z"/>
    <path d="M20.7,3.19c.06.33.03.46-.18.72l-12.47,12.62-.34-.1-1.79.98c-.46.12-.66-.19-.57-.62.05-.25.53-1.16.67-1.46.05-.1.22-.3.23-.35.02-.13-.22-.25,0-.57.38-.55,1.02-.97,1.5-1.4,1.21-1.09,2.47-2.21,3.59-3.39,2.11-2.24,4.19-4.5,6.32-6.71.45-.47.93-1.09,1.66-1.03.36-.29.81-.94,1.31-.77.16.05.96.78,1.01.93.17.55-.61.86-.94,1.17ZM20.64,2.25c-.07-.59-.63-.08-.81.17.07.08.18.25.3.22l.51-.39ZM18.89,2.8c-.16.04-.83.9-1,1.08-1.14,1.19-2.31,2.34-3.44,3.54-1.94,2.04-3.8,4.08-5.91,5.96-.45.39-.93.75-1.38,1.14-.04.05-.02.09,0,.15.03.07.77.76.83.77L19.65,3.66l.1-.2s-.66-.63-.71-.65c-.06-.03-.09-.03-.16-.02ZM7.13,15.87c.08-.11-.22-.36-.34-.34l-.24.58c.23.01.37-.2.58-.24Z"/>
  </g>
</svg>