<?xml version="1.0" encoding="UTF-8"?>
<svg id="Layer_1" data-name="Layer 1" xmlns="http://www.w3.org/2000/svg" viewBox="0 0 24 24">
  <defs>
    <style>
      .cls-1 {
        stroke-width: .35px;
      }

      .cls-1, .cls-2 {
        stroke: #000;
        stroke-miterlimit: 10;
      }

      .cls-2 {
        stroke-width: 1.14px;
      }
    </style>
  </defs>
  <path class="cls-2" d="M2.6,4.68l.44,16.11,15.88-.48.15-.23c.12-1.73-.23-3.65-.06-5.36.08-.78.86-.78.94-.11-.14,1.93.18,4.12,0,6.03-.07.77-.79.54-1.36.57-3.94.21-7.88.27-11.82.39-1.3.04-2.62.15-3.92.17-.97.02-.71-.83-.74-1.47-.25-4.95-.31-10-.39-14.97-.01-.8-.37-1.49.74-1.57,1.46-.11,3.06-.05,4.53-.11,2.31-.08,4.65-.25,6.96-.28.83-.01.93.85.11.94l-11.46.39Z"/>
  <path class="cls-1" d="M21.38,4.37c.06.33.03.46-.18.72l-12.47,12.62-.34-.1-1.79.98c-.46.12-.66-.19-.57-.62.05-.25.53-1.16.67-1.46.05-.1.22-.3.23-.35.02-.13-.22-.25,0-.57.38-.55,1.02-.97,1.5-1.4,1.21-1.09,2.47-2.21,3.59-3.39,2.11-2.24,4.19-4.5,6.32-6.71.45-.47.93-1.09,1.66-1.03.36-.29.81-.94,1.31-.77.16.05.96.78,1.01.93.17.55-.61.86-.94,1.17ZM21.32,3.44c-.07-.59-.63-.08-.81.17.07.08.18.25.3.22l.51-.39ZM19.57,3.98c-.16.04-.83.9-1,1.08-1.14,1.19-2.31,2.34-3.44,3.54-1.94,2.04-3.8,4.08-5.91,5.96-.45.39-.93.75-1.38,1.14-.04.05-.02.09,0,.15.03.07.77.76.83.77l11.67-11.77.1-.2s-.66-.63-.71-.65c-.06-.03-.09-.03-.16-.02ZM7.81,17.05c.08-.11-.22-.36-.34-.34l-.24.58c.23.01.37-.2.58-.24Z"/>
</svg>