<?xml version="1.0" encoding="UTF-8"?>
<svg id="Layer_1" data-name="Layer 1" xmlns="http://www.w3.org/2000/svg" viewBox="0 0 21.81 22.2">
  <g id="heart">
    <path d="M17.21.05c3.31-.37,2.31,4.99,1.88,6.84-1.11,4.69-3.97,10.81-6.65,14.83-.17.26-.31.54-.69.46-.19-.04-.21-.21-.33-.31-.15-.12-.43-.18-.6-.28-3.82-2.2-6.98-8.43-7.62-12.68-.25-1.67-.36-4.49,1.31-5.49,1.95-1.17,4.46.99,5.71,2.36l.14.04c.64-.73,1.2-1.52,1.86-2.24C13.35,2.38,15.53.24,17.21.05ZM17.31.88c-1.74.19-4.29,3.08-5.39,4.39-.2.24-.99,1.36-1.17,1.41s-.27-.02-.42-.02c-.09,0-.18.05-.29.04-.3-.02-.75-.7-.97-.93-1.77-1.74-4.67-3.25-5.13.47-.52,4.23,2.91,11.12,6.15,13.8.23.19,1.5,1.12,1.73,1,.05-.03.11-.14.15-.2,1.2-1.65,2.47-4.27,3.35-6.14,1.44-3.06,3.78-8.83,3.41-12.16-.09-.85-.38-1.78-1.42-1.67Z"/>
  </g>
</svg>