<?xml version="1.0" encoding="UTF-8"?>
<svg id="Layer_1" data-name="Layer 1" xmlns="http://www.w3.org/2000/svg" viewBox="0 0 24 24">
  <defs>
    <style>
      .cls-1 {
        stroke-width: .5px;
      }

      .cls-1, .cls-2 {
        stroke: #000;
        stroke-miterlimit: 10;
      }
    </style>
  </defs>
  <path class="cls-2" d="M21.95,2.93c.07.04.19-.01.3.09.23.22-.11.94-.18,1.23-.37,1.57-.66,3.41-.75,5.02s.07,3.12.08,4.66c.02,1.65-.08,3.36,0,4.99.02.49.17,1.15.13,1.65-.01.11-.15.43-.22.5-.04.04-.27.08-.35.09-.31.05-.75.08-1.07.09-2.96.12-6.06-.01-9.04,0-2.39,0-4.87.14-7.26-.12-.09-.01-.17-.07-.26-.08-.11,0-.2.05-.32.04-.17-.02-.3-.19-.31-.35-.05-.44.03-.99,0-1.45-.16-3.09-.97-6.14-1.03-9.24-.04-1.77,0-4.04.4-5.75.05-.21.19-.79.34-.9.2-.14.12-.03.29-.25.18-.24,1.02-.1,1.3-.1,3.86.03,7.75.03,11.6-.08,1.62-.05,3.38-.05,4.99-.16.31-.02.91-.2,1.16-.09.12.05.16.19.19.21ZM21.61,3.39c-1.18.2-2.38.12-3.57.16-4.63.16-9.26.29-13.9.17l-1.26-.13c-.08.47-.21.92-.28,1.39-.41,2.54-.27,5.6.04,8.16.23,1.9.63,3.82.74,5.74.01.25-.05,1.57.09,1.67l2.41.04c4.69.09,9.37-.11,14.07-.04l.88-.09c.03-.05-.11-.59-.12-.72-.15-1.88.03-4.1,0-6.03-.03-2.07-.16-4.03.08-6.1.17-1.43.46-2.84.82-4.23Z"/>
  <path class="cls-1" d="M17.68,6.15c.1,0,.55-.05.59.03l-.02.6-.08.07c-.48.02-.95.02-1.43.04-2.46.12-4.93.33-7.4.38-.51.01-.57-.67,0-.75.3-.04.65.02.96,0,2.46-.11,4.92-.27,7.38-.36Z"/>
  <path class="cls-1" d="M17.72,11.55c.09,0,.41-.05.46.03l-.02.64c-.23.04-.48,0-.72.02-2.49.13-5,.12-7.5.17-.24,0-.9.21-.91-.31s.79-.33,1.05-.34c2.54-.11,5.1-.08,7.64-.2Z"/>
  <path class="cls-1" d="M18.09,17.56c-.39.04-.79.02-1.18.04-2.32.12-4.64.25-6.97.33-.25,0-.85.22-.85-.31,0-.34.28-.37.49-.39,2.69-.18,5.43-.22,8.13-.33.12,0,.28-.12.38.02v.64Z"/>
  <path class="cls-2" d="M5.99,5.9c.39-.09.92.19.99.6.12.64-.2,1.3-.92,1.21s-.59-1.69-.07-1.81Z"/>
  <path class="cls-2" d="M6.49,11.26c.16-.03.26,0,.41.06,1.01.39.22,1.94-.7,1.57-.74-.3-.31-1.54.29-1.63Z"/>
  <path class="cls-2" d="M6.57,16.66c.7-.16,1.3.57.72,1.17-.7.73-1.63,0-1.07-.86.06-.09.25-.28.35-.31Z"/>
</svg>