<?xml version="1.0" encoding="UTF-8"?>
<svg id="Layer_1" data-name="Layer 1" xmlns="http://www.w3.org/2000/svg" viewBox="0 0 22.38 22.2">
  <g id="lists">
    <path d="M21.27,1.75c.07.04.19-.01.3.09.23.22-.11.94-.18,1.23-.37,1.57-.66,3.41-.75,5.02s.07,3.12.08,4.66c.02,1.65-.08,3.36,0,4.99.02.49.17,1.15.13,1.65-.01.11-.15.43-.22.5-.04.04-.27.08-.35.09-.31.05-.75.08-1.07.09-2.96.12-6.06-.01-9.04,0-2.39,0-4.87.14-7.26-.12-.09-.01-.17-.07-.26-.08-.11,0-.2.05-.32.04-.17-.02-.3-.19-.31-.35-.05-.44.03-.99,0-1.45-.16-3.09-.97-6.14-1.03-9.24-.04-1.77,0-4.04.4-5.75.05-.21.19-.79.34-.9.2-.14.12-.03.29-.25.18-.24,1.02-.1,1.3-.1,3.86.03,7.75.03,11.6-.08,1.62-.05,3.38-.05,4.99-.16.31-.02.91-.2,1.16-.09.12.05.16.19.19.21ZM20.93,2.21c-1.18.2-2.38.12-3.57.16-4.63.16-9.26.29-13.9.17l-1.26-.13c-.08.47-.21.92-.28,1.39-.41,2.54-.27,5.6.04,8.16.23,1.9.63,3.82.74,5.74.01.25-.05,1.57.09,1.67l2.41.04c4.69.09,9.37-.11,14.07-.04l.88-.09c.03-.05-.11-.59-.12-.72-.15-1.88.03-4.1,0-6.03-.03-2.07-.16-4.03.08-6.1.17-1.43.46-2.84.82-4.23Z"/>
    <path d="M18.28,5.03c.13,0,.68-.05.73.03l-.03.6-.1.07c-.59.02-1.19.02-1.78.04-3.06.12-6.13.33-9.2.38-.64.01-.71-.67,0-.75.37-.04.81.02,1.2,0,3.05-.11,6.11-.27,9.17-.36Z"/>
    <path d="M18.32,10.43c.11,0,.51-.05.57.03l-.02.64c-.29.04-.6,0-.89.02-3.1.13-6.22.12-9.32.17-.3,0-1.11.21-1.13-.31s.98-.33,1.3-.34c3.16-.11,6.34-.08,9.5-.2Z"/>
    <path d="M18.78,16.44c-.49.04-.98.02-1.47.04-2.89.12-5.77.25-8.66.33-.31,0-1.06.22-1.06-.31,0-.34.34-.37.61-.39,3.35-.18,6.75-.22,10.1-.33.15,0,.35-.12.47.02v.64Z"/>
    <path d="M5.07,4.82c.39-.09.92.19.99.6.12.64-.2,1.3-.92,1.21s-.59-1.69-.07-1.81Z"/>
    <path d="M5.57,10.18c.16-.03.26,0,.41.06,1.01.39.22,1.94-.7,1.57-.74-.3-.31-1.54.29-1.63Z"/>
    <path d="M5.65,15.58c.7-.16,1.3.57.72,1.17-.7.73-1.63,0-1.07-.86.06-.09.25-.28.35-.31Z"/>
  </g>
</svg>