<?xml version="1.0" encoding="UTF-8"?>
<svg id="Layer_1" data-name="Layer 1" xmlns="http://www.w3.org/2000/svg" viewBox="0 0 19.47 21.52">
  <defs>
    <style>
      .cls-1 {
        fill: #767676;
      }

      .cls-2 {
        fill: #050505;
      }

      .cls-3 {
        fill: #b9b9b9;
      }
    </style>
  </defs>
  <path class="cls-3" d="M19.16,20.52c-.45.28-1.42.24-1.98.25-4.87.12-9.75.46-14.63.65-.38.02-.84.1-1.21.1-.1,0-.26-.05-.34-.1-.29-.19-.13-.4-.13-.67.03-1.73-.11-3.46-.16-5.18-.06-2.23-.03-4.51-.25-6.71.12.06.14.16.15.28.09.78.02,1.72.05,2.52.1,3.01.22,6.04.3,9.05,0,.21-.17.52.09.67.17.09.68.06.9.06,4.66-.12,9.31-.63,13.97-.71.93-.01,1.98.06,2.91-.1.11-.02.21-.11.33-.1Z"/>
  <g>
    <path class="cls-2" d="M.46,8.86c-.13-.55-.59-1.81-.43-2.31.03-.09.11-.17.19-.21L16.29.04c.39-.07.65-.08.87.29.32.56.46,1.47.78,1.98.09.14.25.19.29.31.08.23-.07.4-.26.5L3.28,8.13l-.1.12c.13.01.25-.05.37-.05,4.12-.12,8.24-.17,12.37-.25.79-.01,1.66-.14,2.46-.05.2.02.47.11.52.34.03.14.05.47.06.64.12,1.6.12,3.23.2,4.83.09,1.78.26,3.59.31,5.37,0,.29.06,1.13-.1,1.31-.06.07-.14.08-.2.12-.12-.01-.22.08-.33.1-.93.16-1.99.09-2.91.1-4.66.07-9.31.58-13.97.71-.22,0-.73.04-.9-.06-.26-.15-.08-.45-.09-.67-.08-3.01-.2-6.04-.3-9.05-.03-.8.04-1.73-.05-2.52-.01-.12-.03-.22-.15-.28ZM2.98,7.45c.38-.12.81-.19,1.16-.4,4.37-1.42,8.68-3.03,13.06-4.42l-.65-1.86L.79,6.95c0,.18.15,1.12.3,1.14.63-.2,1.25-.44,1.89-.64ZM1.37,9.08v1.41s.05.08.06.12c.14.03.28-.04.42-.05,4.72-.13,9.41-.28,14.12-.45.74-.03,1.47,0,2.21-.06l.06-.04c.07-.16-.03-.32-.03-.48,0-.22.1-.91-.17-.93l-16.66.47ZM18.7,19.86l-.44-9.02-16.83.54.24,9.29,17.03-.81Z"/>
    <path class="cls-1" d="M4.13,7.05c-.34.21-.77.28-1.16.4.34-.22.77-.28,1.16-.4Z"/>
  </g>
</svg>