<?xml version="1.0" encoding="UTF-8"?>
<svg id="Layer_1" data-name="Layer 1" xmlns="http://www.w3.org/2000/svg" viewBox="0 0 24 24">
  <defs>
    <style>
      .cls-1 {
        fill: #050505;
      }

      .cls-1, .cls-2 {
        stroke: #000;
        stroke-miterlimit: 10;
        stroke-width: .75px;
      }

      .cls-2 {
        fill: #767676;
      }
    </style>
  </defs>
  <path class="cls-1" d="M1.83,7c.03-.09.11-.17.19-.21L18.08.49c.39-.07.65-.08.87.29.32.56.46,1.47.78,1.98.09.14.25.19.29.31.08.23-.07.4-.26.5l-14.69,5.01-.1.12c.13.01.25-.05.37-.05,4.12-.12,8.24-.17,12.37-.25.79-.01,1.66-.14,2.46-.05.2.02.47.11.52.34.03.14.05.47.06.64.12,1.6.12,3.23.2,4.83.09,1.78.26,3.59.31,5.37,0,.29.06,1.13-.1,1.31-.06.07-.14.08-.2.12-.12-.01-.22.08-.33.1-.93.16-1.99.09-2.91.1-4.66.07-9.31.58-13.97.71-.22,0-.9-.06-.9-.06,0,0-.08-.45-.09-.67-.08-3.01-.2-6.04-.3-9.05-.03-.8.04-1.73-.05-2.52-.01-.12-.74-2.08-.58-2.59ZM4.77,7.91c.38-.12.81-.19,1.16-.4,4.37-1.42,8.68-3.03,13.06-4.42l-.65-1.86L2.58,7.4c0,.18.15,1.12.3,1.14.63-.2,1.25-.44,1.89-.64ZM3.16,9.54v1.41s.05.08.06.12c.14.03.28-.04.42-.05,4.72-.13,9.41-.28,14.12-.45.74-.03,1.47,0,2.21-.06l.06-.04c.07-.16-.03-.32-.03-.48,0-.22.1-.91-.17-.93l-16.66.47ZM20.49,20.31l-.44-9.02-16.83.54.24,9.29,17.03-.81Z"/>
  <path class="cls-2" d="M5.92,7.5c-.34.21-.77.28-1.16.4.34-.22.77-.28,1.16-.4Z"/>
</svg>