<?xml version="1.0" encoding="UTF-8"?>
<svg id="Layer_1" data-name="Layer 1" xmlns="http://www.w3.org/2000/svg" viewBox="0 0 21.81 22.2">
  <g id="posters">
    <path d="M11.96.95l.09,2.19c0,.18.15.31.33.31h4.77c.18,0,.33.15.33.33v1.91c.34-.01.69.01,1.03,0,.6-.02,1.22-.1,1.82-.12.19,0,.92-.05.96.1l.12,9.15c0,.18-.14.33-.33.33h-3.52l-.09.09v1.38h-5.08c-.18,0-.33.15-.33.33v3.17c0,.18-.15.33-.33.33H1.74c-.18,0-.56-.58-.5-.79V1.37c-.04-.21.25-.73.44-.73h9.95c.18,0,.32.14.33.31ZM2.01,1.67v17.75c0,.18.15.33.33.33h8.64c.18,0,.33-.15.33-.33V1.67c0-.18-.15-.33-.33-.33H2.33c-.18,0-.33.15-.33.33ZM12.06,4.49v11.16c0,.18.15.33.33.33h4.11c.18,0,.33-.15.33-.33V4.49c0-.18-.15-.33-.33-.33h-4.11c-.18,0-.33.15-.33.33ZM17.47,6.71v7.47c0,.18.15.33.33.33.63,0,1.25-.02,1.88,0,.34,0,.9.25,1.08-.2l-.17-7.69c0-.18-.16-.33-.34-.32l-2.47.09c-.18,0-.32.15-.32.33Z"/>
  </g>
</svg>