<?xml version="1.0" encoding="UTF-8"?>
<svg id="Layer_1" data-name="Layer 1" xmlns="http://www.w3.org/2000/svg" viewBox="0 0 22.38 22.2">
  <g id="profile">
    <path d="M13.68,11.85c1.18.24,3.31-.41,4.05.83.32.54.4,1.14.43,1.77.08,1.58-.18,3.13-.06,4.71-.06.21-.28.31-.47.21-.36-.19-.27-1.19-.27-1.56.01-1.15.17-2.33.1-3.5-.06-.95-.23-1.61-1.28-1.7-1.14-.1-2.36.04-3.54-.1-.35-.04-.76-.1-.61-.56.08-.24.84-.49,1.1-.63,3.02-1.61,6.37-6.02,2.94-8.97s-8.99-.03-11.01,3.28c-1.73,2.84.04,5.44,2.92,6.31.32.1,1.04.16,1.26.28.12.07.2.17.2.31,0,.09-.28.63-.35.72-.86,1.13-2.83,1.77-3.19,3.3-.29,1.25-.16,2.99.03,4.24.1.69-.66.64-.79-.15-.17-1.06-.16-3.09.06-4.14.33-1.6,1.83-2.34,2.97-3.33.1-.09.38-.3.37-.42-2.43-.43-5.27-2.54-5.04-5.28S7.69,1.63,10.14.77s5.2-.41,6.97,1.65c2.69,3.13.04,6.84-2.64,8.84-.07.05-.84.53-.79.59Z"/>
  </g>
</svg>