<?xml version="1.0" encoding="UTF-8"?>
<svg id="Layer_1" data-name="Layer 1" xmlns="http://www.w3.org/2000/svg" viewBox="0 0 24 24">
  <defs>
    <style>
      .cls-1 {
        stroke: #000;
        stroke-miterlimit: 10;
        stroke-width: 1.5px;
      }
    </style>
  </defs>
  <path class="cls-1" d="M21.16,9.11c.94,3.24-1.44,5.52-4.29,6.49-2.52.86-5.28.8-7.83.14-.31.44-.57.93-.87,1.38-.47.69-1.02,1.34-1.5,2.02-.36.52-1.1,1.98-1.66,2.14-.62.17-1.31-.38-1.44-.98-.19-.88,1.13-2.24,1.47-3.04l1.72-2.36c0-.1-.59-.37-.71-.44C-.07,10.55,2.71,4.84,9.07,3.83c3.95-.63,10.81.88,12.08,5.29ZM20.17,9.45c-1.07-3.56-6.98-5.06-10.25-4.67s-7.81,2.51-5.76,6.4c2.38,4.54,12.14,5.47,15.36,1.52.76-.93,1-2.08.65-3.25Z"/>
</svg>