<?xml version="1.0" encoding="UTF-8"?>
<svg id="Layer_1" data-name="Layer 1" xmlns="http://www.w3.org/2000/svg" viewBox="0 0 22.38 22.2">
  <g id="search">
    <path d="M20.48,7.93c.94,3.24-1.44,5.52-4.29,6.49-2.52.86-5.28.8-7.83.14-.31.44-.57.93-.87,1.38-.47.69-1.02,1.34-1.5,2.02-.36.52-1.1,1.98-1.66,2.14-.62.17-1.31-.38-1.44-.98-.19-.88,1.13-2.24,1.47-3.04l1.72-2.36c0-.1-.59-.37-.71-.44C-.75,9.36,2.03,3.66,8.39,2.64c3.95-.63,10.81.88,12.08,5.29ZM19.49,8.26c-1.07-3.56-6.98-5.06-10.25-4.67S1.44,6.1,3.48,9.99c2.38,4.54,12.14,5.47,15.36,1.52.76-.93,1-2.08.65-3.25Z"/>
  </g>
</svg>