<?xml version="1.0" encoding="UTF-8"?>
<svg id="Layer_1" data-name="Layer 1" xmlns="http://www.w3.org/2000/svg" viewBox="0 0 22.38 22.2">
  <g id="star-empty">
    <path d="M20.81,7.66s.15.23.17.29c.39,1.05-1.09,1.68-1.74,2.24-.32.27-.59.63-.9.9-.37.32-2.86,2.25-2.91,2.44.19,1.1.4,2.21.67,3.29.23.91.83,2.3.92,3.12.03.25.05.42-.13.61-.3.33-.8.51-1.18.2-1.35-1-2.62-2.26-3.96-3.25-.32-.24-.69-.41-1.01-.65l-4.46,4.25c-.51.4-1.31.06-1.39-.58-.09-.73.42-1.74.62-2.43.33-1.16.61-2.34.95-3.5-1.6-1.4-3.72-2.24-5.3-3.65-.88-.79-.24-1.29.64-1.53,2.01-.55,4.17-.57,6.2-1.01.96-2.52,2.08-4.98,2.79-7.59.23-.45.77-.73,1.15-.28.26.31.19.78.26,1.16.45,2.19,1.43,4.21,2.03,6.36.17.11.85-.08,1.09-.09,1.13-.09,2.28-.14,3.42-.25.5-.05,1.67-.39,2.06-.04ZM13.49,8.82c-.47-1.34-.75-2.79-1.28-4.1-.15-.37-.72-2-1.22-1.29-.33.46-.81,1.61-1.05,2.18-.54,1.24-.95,2.53-1.49,3.76l-5.83,1.07.06.22c1.56,1.09,3.11,2.18,4.75,3.14.11,1.79-.87,3.47-.84,5.28.14.02.23-.05.34-.12.76-.52,1.6-1.5,2.36-2.11.21-.17,1.39-1.06,1.55-1.06.96.58,1.77,1.38,2.68,2.04.4.29,1.53,1.09,1.94,1.17.09.02.15.06.22-.04l-1.33-5.62c.04-.2,1.65-1.44,1.92-1.69.45-.41.86-.88,1.3-1.31.18-.17,1.69-1.34,1.43-1.58l-5.53.06Z"/>
  </g>
</svg>