<?xml version="1.0" encoding="UTF-8"?>
<svg id="Layer_1" data-name="Layer 1" xmlns="http://www.w3.org/2000/svg" viewBox="0 0 24 24">
  <defs>
    <style>
      .cls-1 {
        stroke: #000;
        stroke-miterlimit: 10;
        stroke-width: .75px;
      }
    </style>
  </defs>
  <g id="trash_can" data-name="trash can">
    <path class="cls-1" d="M13.65,3.58c.84.01,1.69-.02,2.53,0,1.74.03,3.51,0,5.25.1.31.02.89-.1,1.06.2l-.03,2.81c-.19.29-.44.13-.69.12-.38,0-.76,0-1.13,0,0,.23,0,.47,0,.7.11,3.32.38,6.64.53,9.96.04.93.13,1.93.14,2.85,0,.34-.19.65-.53.72-.6.13-1.51.04-2.15.07-4.1.16-8.21.31-12.33.39-.35,0-.95.22-1.17-.17-.14-.25-.07-.51-.1-.76-.52-4.61-.85-9.25-1.36-13.86l-.04-.06c-.11-.08-1.56.01-1.86-.02-.32-.04-.34-.3-.39-.57-.09-.48-.17-1.18-.21-1.67-.02-.29-.06-.58.04-.86l7.23.02c0-.16.04-.3.05-.45.02-.37-.12-1.17.01-1.43.13-.28.65-.13.87-.14,1.28-.06,2.57-.21,3.86-.29.27.03.45.14.5.41l-.09,1.95ZM9.32,3.53l3.48.04c.06-.02.07-.06.08-.11.07-.35-.02-.95.04-1.34l-.1-.07-3.53.28.03,1.21ZM21.74,5.91v-1.4l-.17-.07c-6.06-.07-12.11-.07-18.16-.19-.47,0-.95.01-1.42,0l.17,1.5s.58.09.68.09c3.07.17,6.39.02,9.49.05,1.74.02,3.51.05,5.24.1,1.26-.11,2.77.14,4,0,.07,0,.12,0,.17-.07ZM19.82,6.8l-15.27-.17,1.31,14.08,14.59-.45-.63-13.46Z"/>
    <g>
      <path class="cls-1" d="M8.2,10.18c.35-.1.42.35.45.59.17,1.9.29,4.06.34,5.97,0,.23.03.7-.32.7-.45,0-.34-.94-.36-1.22-.13-1.75-.28-3.59-.34-5.34,0-.21-.03-.62.23-.69Z"/>
      <path class="cls-1" d="M15.66,10.28c.37-.08.41.27.45.55.2,1.57.27,3.32.39,4.91.02.28.19.88-.03,1.08-.25.24-.56-.08-.55-.36-.06-1.88-.41-3.81-.48-5.68,0-.2-.01-.45.23-.5Z"/>
      <path class="cls-1" d="M12.05,10.23c.5-.09.38.74.4,1.03.11,1.54.24,3.12.29,4.67,0,.2,0,.57-.27.61-.52.07-.39-.82-.41-1.13-.1-1.52-.26-3.15-.29-4.67,0-.2.04-.46.28-.5Z"/>
    </g>
  </g>
</svg>