<?xml version="1.0" encoding="UTF-8"?>
<svg id="Layer_1" data-name="Layer 1" xmlns="http://www.w3.org/2000/svg" viewBox="0 0 22.38 22.2">
  <g id="tv">
    <path d="M11.56,3.59c2-.15,4-.28,6-.42.73-.05,1.59-.21,2.31-.21.62,0,.88.51.98,1.07.22,4.21.5,8.42.7,12.61.02.42.23,1.87-.1,2.13-.16.12-.91.27-1.13.29-2.21.17-4.56,0-6.78.1l-7.43.16c-.86.11-1.74.04-2.61.05-.39,0-.54.14-.95-.1-.44-.25-.58-.57-.63-1.07-.28-3.22-.7-6.46-1.09-9.67-.07-.54-.5-3.53-.34-3.8.36-.27.72-.38,1.16-.41l8.93-.63.08-.08c-.06-.42-1.21-1.8-1.13-2.1.05-.2.27-.3.45-.2.29.17,1.06,1.75,1.16,1.76l1.28-1.73c.36-.31.71.04.46.42l-1.31,1.83ZM19.59,4.37L1.82,5.67l1.43,12.36,17.05-.31-.7-13.34Z"/>
    <path d="M12.7,6.46c3.15-.23,6.44,2.02,5.82,5.6-.88,5.13-9.18,6.81-11.48,2.08-1.91-3.92,2.1-7.43,5.66-7.69ZM12.5,7.4c-2.82.26-6.18,3.17-4.68,6.32,1.91,4,9.21,2.45,9.86-1.9.47-3.12-2.58-4.65-5.18-4.42Z"/>
    <path d="M5.42,15.57c-.78.74-1.83-.6-1.14-1.41.33-.39,1.1-.4,1.37.04.21.35.06,1.1-.23,1.37Z"/>
    <path d="M4.22,7.65c1.36-.29,1.04,2.35-.2,1.8-.82-.36-.5-1.65.2-1.8Z"/>
    <path d="M4.62,10.87c1.02-.15.84,1.78.04,1.81-.53.02-.99-.57-.86-1.1.07-.28.54-.67.82-.71Z"/>
  </g>
</svg>