<?xml version="1.0" encoding="UTF-8"?>
<svg id="Layer_1" data-name="Layer 1" xmlns="http://www.w3.org/2000/svg" viewBox="0 0 24 24">
  <defs>
    <style>
      .cls-1 {
        stroke-width: .25px;
      }

      .cls-1, .cls-2 {
        stroke: #000;
        stroke-miterlimit: 10;
      }

      .cls-2 {
        stroke-width: .5px;
      }
    </style>
  </defs>
  <path class="cls-2" d="M12.42,4.79c2-.09,4.01-.17,6.01-.25.74-.03,1.6-.17,2.31-.15.62.02.87.53.95,1.09.1,4.22.27,8.43.36,12.63,0,.42.18,1.87-.16,2.12-.16.12-.91.25-1.13.26-2.21.11-4.56-.12-6.78-.08l-7.43-.04c-.86.08-1.74,0-2.61-.02-.39,0-.54.13-.95-.13-.43-.26-.57-.59-.6-1.08-.2-3.23-.52-6.48-.83-9.7-.05-.55-.41-3.54-.24-3.81.37-.26.73-.36,1.17-.38l8.94-.39.08-.07c-.05-.42-1.16-1.83-1.07-2.13.06-.2.28-.3.45-.19.29.18,1.01,1.78,1.11,1.79l1.33-1.7c.36-.3.7.06.45.43l-1.36,1.8ZM20.43,5.79l-17.8.82,1.1,12.39,17.05.14-.34-13.36Z"/>
  <path class="cls-2" d="M13.27,8.19c2.73-.2,5.59,1.75,5.05,4.86-.77,4.46-7.97,5.92-9.97,1.81-1.65-3.4,1.82-6.45,4.91-6.67ZM13.1,9c-2.45.22-5.37,2.75-4.07,5.49,1.66,3.48,8,2.13,8.56-1.65.4-2.71-2.24-4.04-4.5-3.84Z"/>
  <path class="cls-1" d="M6.56,16.82c-.78.74-1.83-.6-1.14-1.41.33-.39,1.1-.4,1.37.04.21.35.06,1.1-.23,1.37Z"/>
  <path class="cls-1" d="M5.36,8.9c1.36-.29,1.04,2.35-.2,1.8-.82-.36-.5-1.65.2-1.8Z"/>
  <path class="cls-1" d="M5.76,12.12c1.02-.15.84,1.78.04,1.81-.53.02-.99-.57-.86-1.1.07-.28.54-.67.82-.71Z"/>
</svg>