<?xml version="1.0" encoding="UTF-8"?>
<svg id="Layer_1" data-name="Layer 1" xmlns="http://www.w3.org/2000/svg" viewBox="0 0 24 24">
  <defs>
    <style>
      .cls-1 {
        stroke: #000;
        stroke-miterlimit: 10;
      }
    </style>
  </defs>
  <g id="unwatched">
    <path class="cls-1" d="M11.36,5.22c3.26-.21,6.25,1.39,8.7,3.37.36.29,1.66,1.36,1.78,1.72.09.27-.05.58-.16.83-1.07,2.59-3.46,5.23-5.92,6.57-4.9,2.68-10.62.71-12.71-4.46-.3-.74-.36-1.12,0-1.87,1.48-3.11,4.76-5.94,8.3-6.17ZM21.24,10.51c-2.99-2.83-7.12-5.53-11.44-4.4-2.7.71-4.82,2.83-6.15,5.21-.1.18-.46.81-.45.97,0,.1.3.76.37.91,1.01,2.2,2.81,3.94,5.15,4.65,5.4,1.65,10.58-2.45,12.54-7.24l-.03-.11Z"/>
    <path class="cls-1" d="M11.94,8.02c4.25-.46,5.6,4.42,2.6,6.99-2.64,2.25-6.83.74-6.56-2.94.14-1.92,2.05-3.85,3.96-4.06ZM12.45,8.6c-2.57.13-5.17,2.92-3.66,5.42s5.24,1.61,6.47-.7-.17-4.85-2.82-4.72Z"/>
  </g>
</svg>